<svg xmlns="http://www.w3.org/2000/svg" viewBox="0 0 720 504">
  <!-- Fundo verde -->
  <rect width="720" height="504" fill="#009c3b"/>
  <!-- Losango amarelo -->
  <path d="M360 72L720 252L360 432L0 252Z" fill="#ffdf00"/>
  <!-- Círculo azul -->
  <circle cx="360" cy="252" r="110" fill="#002776"/>
  <!-- Faixa branca -->
  <path d="M360 142A110 110 0 0 0 360 362 110 110 0 0 0 360 142" fill="none" stroke="#fff" stroke-width="13"/>
  <!-- Estrelas -->
  <g fill="#fff">
    <!-- Estrelas acima da faixa -->
    <path d="M360 210L365 222H378L368 230L372 242L360 234L348 242L352 230L342 222H355Z"/>
    <path d="M320 230L323 238H332L325 243L328 251L320 246L312 251L315 243L308 238H317Z"/>
    <path d="M400 230L403 238H412L405 243L408 251L400 246L392 251L395 243L388 238H397Z"/>
    <path d="M280 252L283 260H292L285 265L288 273L280 268L272 273L275 265L268 260H277Z"/>
    <path d="M440 252L443 260H452L445 265L448 273L440 268L432 273L435 265L428 260H437Z"/>
    <!-- Estrelas abaixo da faixa -->
    <path d="M320 274L323 282H332L325 287L328 295L320 290L312 295L315 287L308 282H317Z"/>
    <path d="M400 274L403 282H412L405 287L408 295L400 290L392 295L395 287L388 282H397Z"/>
    <path d="M360 294L363 302H372L365 307L368 315L360 310L352 315L355 307L348 302H357Z"/>
  </g>
</svg>
