<svg xmlns="http://www.w3.org/2000/svg" viewBox="0 0 750 500">
  <!-- Faixas horizontais -->
  <rect width="750" height="500" fill="#c60b1e"/>
  <rect width="750" height="250" y="125" fill="#ffc400"/>
  
  <!-- Brasão simplificado -->
  <g transform="translate(150, 125) scale(0.5)">
    <!-- Escudo -->
    <path d="M225,30 C225,30 400,55 450,190 C500,325 450,470 450,470 L0,470 C0,470 -50,325 0,190 C50,55 225,30 225,30 z" fill="#fff"/>
    
    <!-- Quartéis -->
    <g>
      <!-- Castela -->
      <rect x="50" y="100" width="150" height="150" fill="#c60b1e"/>
      <rect x="75" y="125" width="100" height="100" fill="#ffdf00"/>
      <rect x="100" y="150" width="50" height="50" fill="#c60b1e"/>
      
      <!-- Leão -->
      <rect x="250" y="100" width="150" height="150" fill="#fff"/>
      <path d="M325,125 L340,170 L385,170 L350,200 L365,245 L325,215 L285,245 L300,200 L265,170 L310,170 z" fill="#c60b1e"/>
      
      <!-- Aragão -->
      <rect x="50" y="270" width="150" height="150" fill="#ffdf00"/>
      <rect x="60" y="290" width="130" height="20" fill="#c60b1e"/>
      <rect x="60" y="330" width="130" height="20" fill="#c60b1e"/>
      <rect x="60" y="370" width="130" height="20" fill="#c60b1e"/>
      <rect x="60" y="410" width="130" height="20" fill="#c60b1e"/>
      
      <!-- Navarra -->
      <rect x="250" y="270" width="150" height="150" fill="#c60b1e"/>
      <path d="M325,295 L340,340 L385,340 L350,370 L365,415 L325,385 L285,415 L300,370 L265,340 L310,340 z" fill="#ffdf00"/>
    </g>
    
    <!-- Colunas de Hércules -->
    <rect x="-25" y="100" width="25" height="320" fill="#ffdf00"/>
    <rect x="450" y="100" width="25" height="320" fill="#ffdf00"/>
    
    <!-- Faixas -->
    <rect x="-50" y="150" width="50" height="30" fill="#c60b1e"/>
    <rect x="-50" y="340" width="50" height="30" fill="#c60b1e"/>
    <rect x="450" y="150" width="50" height="30" fill="#c60b1e"/>
    <rect x="450" y="340" width="50" height="30" fill="#c60b1e"/>
  </g>
</svg>
