<svg xmlns="http://www.w3.org/2000/svg" viewBox="0 0 912 639">
  <!-- Fundo com 13 listras alternadas -->
  <rect width="912" height="639" fill="#fff"/>
  <g fill="#bf0a30">
    <rect width="912" height="49.15" y="0"/>
    <rect width="912" height="49.15" y="98.3"/>
    <rect width="912" height="49.15" y="196.6"/>
    <rect width="912" height="49.15" y="294.9"/>
    <rect width="912" height="49.15" y="393.2"/>
    <rect width="912" height="49.15" y="491.5"/>
    <rect width="912" height="49.15" y="589.8"/>
  </g>
  <!-- Cantão azul -->
  <rect width="364.8" height="344.4" fill="#002868"/>
  <!-- 50 estrelas brancas (simplificadas para 9 representativas) -->
  <g fill="#fff">
    <!-- Primeira linha -->
    <path d="M30.4 40.7l10.7 7.8-4.1 12.6 10.7-7.8 10.7 7.8-4.1-12.6 10.7-7.8h-13.2l-4.1-12.6-4.1 12.6z"/>
    <path d="M91.2 40.7l10.7 7.8-4.1 12.6 10.7-7.8 10.7 7.8-4.1-12.6 10.7-7.8h-13.2l-4.1-12.6-4.1 12.6z"/>
    <path d="M152 40.7l10.7 7.8-4.1 12.6 10.7-7.8 10.7 7.8-4.1-12.6 10.7-7.8h-13.2l-4.1-12.6-4.1 12.6z"/>
    <path d="M212.8 40.7l10.7 7.8-4.1 12.6 10.7-7.8 10.7 7.8-4.1-12.6 10.7-7.8h-13.2l-4.1-12.6-4.1 12.6z"/>
    <path d="M273.6 40.7l10.7 7.8-4.1 12.6 10.7-7.8 10.7 7.8-4.1-12.6 10.7-7.8h-13.2l-4.1-12.6-4.1 12.6z"/>
    <path d="M334.4 40.7l10.7 7.8-4.1 12.6 10.7-7.8 10.7 7.8-4.1-12.6 10.7-7.8h-13.2l-4.1-12.6-4.1 12.6z"/>
    
    <!-- Segunda linha (deslocada) -->
    <path d="M60.8 86.1l10.7 7.8-4.1 12.6 10.7-7.8 10.7 7.8-4.1-12.6 10.7-7.8h-13.2l-4.1-12.6-4.1 12.6z"/>
    <path d="M121.6 86.1l10.7 7.8-4.1 12.6 10.7-7.8 10.7 7.8-4.1-12.6 10.7-7.8h-13.2l-4.1-12.6-4.1 12.6z"/>
    <path d="M182.4 86.1l10.7 7.8-4.1 12.6 10.7-7.8 10.7 7.8-4.1-12.6 10.7-7.8h-13.2l-4.1-12.6-4.1 12.6z"/>
    <path d="M243.2 86.1l10.7 7.8-4.1 12.6 10.7-7.8 10.7 7.8-4.1-12.6 10.7-7.8h-13.2l-4.1-12.6-4.1 12.6z"/>
    <path d="M304 86.1l10.7 7.8-4.1 12.6 10.7-7.8 10.7 7.8-4.1-12.6 10.7-7.8h-13.2l-4.1-12.6-4.1 12.6z"/>
    
    <!-- Terceira linha -->
    <path d="M30.4 131.5l10.7 7.8-4.1 12.6 10.7-7.8 10.7 7.8-4.1-12.6 10.7-7.8h-13.2l-4.1-12.6-4.1 12.6z"/>
    <path d="M91.2 131.5l10.7 7.8-4.1 12.6 10.7-7.8 10.7 7.8-4.1-12.6 10.7-7.8h-13.2l-4.1-12.6-4.1 12.6z"/>
    <path d="M152 131.5l10.7 7.8-4.1 12.6 10.7-7.8 10.7 7.8-4.1-12.6 10.7-7.8h-13.2l-4.1-12.6-4.1 12.6z"/>
    <path d="M212.8 131.5l10.7 7.8-4.1 12.6 10.7-7.8 10.7 7.8-4.1-12.6 10.7-7.8h-13.2l-4.1-12.6-4.1 12.6z"/>
    <path d="M273.6 131.5l10.7 7.8-4.1 12.6 10.7-7.8 10.7 7.8-4.1-12.6 10.7-7.8h-13.2l-4.1-12.6-4.1 12.6z"/>
    <path d="M334.4 131.5l10.7 7.8-4.1 12.6 10.7-7.8 10.7 7.8-4.1-12.6 10.7-7.8h-13.2l-4.1-12.6-4.1 12.6z"/>
  </g>
</svg>
